<svg width="106" height="20" viewBox="0 0 106 20" fill="none" xmlns="http://www.w3.org/2000/svg">
<path d="M5.93605 19.0961C4.81605 19.0961 3.77605 18.9281 2.81605 18.5921C1.87205 18.2401 1.13605 17.8001 0.608052 17.2721C0.368052 17.0161 0.264052 16.7281 0.296052 16.4081C0.344052 16.0721 0.504052 15.8001 0.776052 15.5921C1.09605 15.3361 1.40805 15.2321 1.71205 15.2801C2.03205 15.3121 2.30405 15.4481 2.52805 15.6881C2.80005 15.9921 3.23205 16.2801 3.82405 16.5521C4.43205 16.8081 5.10405 16.9361 5.84005 16.9361C6.76805 16.9361 7.47205 16.7841 7.95205 16.4801C8.44805 16.1761 8.70405 15.7841 8.72005 15.3041C8.73605 14.8241 8.50405 14.4081 8.02405 14.0561C7.56005 13.7041 6.70405 13.4161 5.45605 13.1921C3.84005 12.8721 2.66405 12.3921 1.92805 11.7521C1.20805 11.1121 0.848053 10.3281 0.848053 9.4001C0.848053 8.5841 1.08805 7.9121 1.56805 7.3841C2.04805 6.8401 2.66405 6.4401 3.41605 6.1841C4.16805 5.9121 4.95205 5.7761 5.76805 5.7761C6.82405 5.7761 7.76005 5.9441 8.57605 6.2801C9.39205 6.6161 10.0401 7.0801 10.5201 7.6721C10.7441 7.9281 10.8481 8.2001 10.8321 8.4881C10.8161 8.7601 10.6801 8.9921 10.4241 9.1841C10.1681 9.3601 9.86405 9.4161 9.51205 9.3521C9.16005 9.2881 8.86405 9.1441 8.62405 8.9201C8.22405 8.5361 7.79205 8.2721 7.32805 8.1281C6.86405 7.9841 6.32805 7.9121 5.72005 7.9121C5.01605 7.9121 4.41605 8.0321 3.92005 8.2721C3.44005 8.5121 3.20005 8.8641 3.20005 9.3281C3.20005 9.6161 3.27205 9.8801 3.41605 10.1201C3.57605 10.3441 3.88005 10.5521 4.32805 10.7441C4.77605 10.9201 5.43205 11.0961 6.29605 11.2721C8.10405 11.6241 9.35205 12.1281 10.0401 12.7841C10.7441 13.4241 11.0961 14.2161 11.0961 15.1601C11.0961 15.8961 10.8961 16.5601 10.4961 17.1521C10.1121 17.7441 9.53605 18.2161 8.76805 18.5681C8.01605 18.9201 7.07205 19.0961 5.93605 19.0961Z" fill="#333333"/>
<path d="M19.5193 19.0961C18.1913 19.0961 17.0073 18.8161 15.9673 18.2561C14.9433 17.6801 14.1353 16.8961 13.5433 15.9041C12.9673 14.8961 12.6793 13.7441 12.6793 12.4481C12.6793 11.1361 12.9513 9.9841 13.4953 8.9921C14.0553 7.9841 14.8233 7.2001 15.7993 6.6401C16.7753 6.0641 17.8953 5.7761 19.1593 5.7761C20.4073 5.7761 21.4793 6.0561 22.3753 6.6161C23.2713 7.1601 23.9513 7.9201 24.4153 8.8961C24.8953 9.8561 25.1353 10.9681 25.1353 12.2321C25.1353 12.5361 25.0313 12.7921 24.8233 13.0001C24.6153 13.1921 24.3513 13.2881 24.0313 13.2881H14.9113C15.0873 14.3921 15.5913 15.2961 16.4233 16.0001C17.2713 16.6881 18.3033 17.0321 19.5193 17.0321C20.0153 17.0321 20.5193 16.9441 21.0313 16.7681C21.5593 16.5761 21.9833 16.3601 22.3033 16.1201C22.5433 15.9441 22.7993 15.8561 23.0713 15.8561C23.3593 15.8401 23.6073 15.9201 23.8153 16.0961C24.0873 16.3361 24.2313 16.6001 24.2473 16.8881C24.2633 17.1761 24.1353 17.4241 23.8633 17.6321C23.3193 18.0641 22.6393 18.4161 21.8233 18.6881C21.0233 18.9601 20.2553 19.0961 19.5193 19.0961ZM19.1593 7.8401C17.9753 7.8401 17.0233 8.1681 16.3033 8.8241C15.5833 9.4801 15.1273 10.3281 14.9353 11.3681H22.9273C22.7833 10.3441 22.3913 9.5041 21.7513 8.8481C21.1113 8.1761 20.2473 7.8401 19.1593 7.8401Z" fill="#333333"/>
<path d="M32.4208 19.0961C31.2528 19.0961 30.2048 18.8081 29.2768 18.2321C28.3488 17.6401 27.6128 16.8481 27.0688 15.8561C26.5408 14.8481 26.2768 13.7121 26.2768 12.4481C26.2768 11.1841 26.5648 10.0481 27.1408 9.0401C27.7328 8.0321 28.5248 7.2401 29.5168 6.6641C30.5248 6.0721 31.6528 5.7761 32.9008 5.7761C34.1488 5.7761 35.2688 6.0721 36.2608 6.6641C37.2528 7.2401 38.0368 8.0321 38.6128 9.0401C39.2048 10.0481 39.5008 11.1841 39.5008 12.4481V17.8001C39.5008 18.1521 39.3808 18.4481 39.1408 18.6881C38.9168 18.9121 38.6288 19.0241 38.2768 19.0241C37.9248 19.0241 37.6288 18.9121 37.3888 18.6881C37.1648 18.4481 37.0528 18.1521 37.0528 17.8001V16.9121C36.4928 17.5841 35.8128 18.1201 35.0128 18.5201C34.2288 18.9041 33.3648 19.0961 32.4208 19.0961ZM32.9008 16.9361C33.7168 16.9361 34.4448 16.7441 35.0848 16.3601C35.7248 15.9601 36.2288 15.4241 36.5968 14.7521C36.9648 14.0641 37.1488 13.2961 37.1488 12.4481C37.1488 11.5841 36.9648 10.8161 36.5968 10.1441C36.2288 9.4561 35.7248 8.9201 35.0848 8.5361C34.4448 8.1361 33.7168 7.9361 32.9008 7.9361C32.1008 7.9361 31.3728 8.1361 30.7168 8.5361C30.0768 8.9201 29.5648 9.4561 29.1808 10.1441C28.8128 10.8161 28.6288 11.5841 28.6288 12.4481C28.6288 13.2961 28.8128 14.0641 29.1808 14.7521C29.5648 15.4241 30.0768 15.9601 30.7168 16.3601C31.3728 16.7441 32.1008 16.9361 32.9008 16.9361Z" fill="#333333"/>
<path d="M43.5041 19.0001C42.7041 19.0001 42.3041 18.6001 42.3041 17.8001V7.0721C42.3041 6.2721 42.7041 5.8721 43.5041 5.8721C44.3041 5.8721 44.7041 6.2721 44.7041 7.0721V7.5281C45.1841 6.9681 45.7681 6.5281 46.4561 6.2081C47.1601 5.8881 47.9201 5.7281 48.7361 5.7281C49.6961 5.7281 50.4081 5.8881 50.8721 6.2081C51.3521 6.5121 51.5361 6.8801 51.4241 7.3121C51.3441 7.6481 51.1841 7.8721 50.9441 7.9841C50.7041 8.0801 50.4241 8.0961 50.1041 8.0321C49.0801 7.8241 48.1601 7.8081 47.3441 7.9841C46.5281 8.1601 45.8801 8.4881 45.4001 8.9681C44.9361 9.4481 44.7041 10.0561 44.7041 10.7921V17.8001C44.7041 18.6001 44.3041 19.0001 43.5041 19.0001Z" fill="#333333"/>
<path d="M58.1271 19.0961C56.8471 19.0961 55.7031 18.8081 54.6951 18.2321C53.7031 17.6401 52.9191 16.8481 52.3431 15.8561C51.7831 14.8481 51.5031 13.7121 51.5031 12.4481C51.5031 11.1521 51.7831 10.0001 52.3431 8.9921C52.9031 7.9841 53.6711 7.2001 54.6471 6.6401C55.6231 6.0641 56.7431 5.7761 58.0071 5.7761C59.8951 5.7761 61.4631 6.4961 62.7111 7.9361C62.9351 8.1921 63.0151 8.4561 62.9511 8.7281C62.8871 9.0001 62.7111 9.2401 62.4231 9.4481C62.1991 9.6081 61.9511 9.6641 61.6791 9.6161C61.4071 9.5521 61.1591 9.4081 60.9351 9.1841C60.1511 8.3521 59.1751 7.9361 58.0071 7.9361C56.7751 7.9361 55.7751 8.3521 55.0071 9.1841C54.2391 10.0001 53.8551 11.0881 53.8551 12.4481C53.8551 13.3121 54.0311 14.0801 54.3831 14.7521C54.7511 15.4241 55.2551 15.9601 55.8951 16.3601C56.5351 16.7441 57.2791 16.9361 58.1271 16.9361C59.2151 16.9361 60.0951 16.6561 60.7671 16.0961C61.0231 15.8881 61.2871 15.7761 61.5591 15.7601C61.8311 15.7281 62.0711 15.8001 62.2791 15.9761C62.5511 16.2001 62.7031 16.4561 62.7351 16.7441C62.7671 17.0161 62.6711 17.2641 62.4471 17.4881C61.2951 18.5601 59.8551 19.0961 58.1271 19.0961Z" fill="#333333"/>
<path d="M66.9731 19.0241C66.6211 19.0241 66.3251 18.9121 66.0851 18.6881C65.8611 18.4481 65.7491 18.1521 65.7491 17.8001V7.0961C65.7491 6.7281 65.8611 6.4321 66.0851 6.2081C66.3251 5.9841 66.6211 5.8721 66.9731 5.8721C67.3411 5.8721 67.6371 5.9841 67.8611 6.2081C68.0851 6.4321 68.1971 6.7281 68.1971 7.0961V7.3601C68.6931 6.8641 69.2931 6.4721 69.9971 6.1841C70.7011 5.8961 71.4611 5.7521 72.2771 5.7521C73.3811 5.7521 74.3651 5.9921 75.2291 6.4721C76.1091 6.9361 76.7971 7.6241 77.2931 8.5361C77.8051 9.4481 78.0611 10.5681 78.0611 11.8961V17.8001C78.0611 18.1521 77.9411 18.4481 77.7011 18.6881C77.4771 18.9121 77.1891 19.0241 76.8371 19.0241C76.4851 19.0241 76.1891 18.9121 75.9491 18.6881C75.7251 18.4481 75.6131 18.1521 75.6131 17.8001V11.8961C75.6131 10.5361 75.2451 9.5441 74.5091 8.9201C73.7891 8.2801 72.8851 7.9601 71.7971 7.9601C71.1251 7.9601 70.5171 8.0961 69.9731 8.3681C69.4291 8.6401 68.9971 9.0081 68.6771 9.4721C68.3571 9.9201 68.1971 10.4401 68.1971 11.0321V17.8001C68.1971 18.1521 68.0851 18.4481 67.8611 18.6881C67.6371 18.9121 67.3411 19.0241 66.9731 19.0241ZM66.9731 14.2241C66.6211 14.2241 66.3251 14.1121 66.0851 13.8881C65.8611 13.6481 65.7491 13.3521 65.7491 13.0001V1.4801C65.7491 1.1121 65.8611 0.816103 66.0851 0.592103C66.3251 0.368104 66.6211 0.256104 66.9731 0.256104C67.3411 0.256104 67.6371 0.368104 67.8611 0.592103C68.0851 0.816103 68.1971 1.1121 68.1971 1.4801V13.0001C68.1971 13.3521 68.0851 13.6481 67.8611 13.8881C67.6371 14.1121 67.3411 14.2241 66.9731 14.2241Z" fill="#333333"/>
<path d="M81.9879 19.3841C81.5399 19.3841 81.1479 19.2241 80.8119 18.9041C80.4919 18.5681 80.3319 18.1761 80.3319 17.7281C80.3319 17.2641 80.4919 16.8721 80.8119 16.5521C81.1479 16.2161 81.5399 16.0481 81.9879 16.0481C82.4519 16.0481 82.8439 16.2161 83.1639 16.5521C83.4839 16.8721 83.6439 17.2641 83.6439 17.7281C83.6439 18.1761 83.4839 18.5681 83.1639 18.9041C82.8439 19.2241 82.4519 19.3841 81.9879 19.3841Z" fill="#333333"/>
<path d="M87.6347 19.0001C87.2827 19.0001 86.9867 18.8881 86.7467 18.6641C86.5227 18.4241 86.4107 18.1281 86.4107 17.7761V7.0961C86.4107 6.7281 86.5227 6.4321 86.7467 6.2081C86.9867 5.9841 87.2827 5.8721 87.6347 5.8721C88.0027 5.8721 88.2987 5.9841 88.5227 6.2081C88.7467 6.4321 88.8587 6.7281 88.8587 7.0961V17.7761C88.8587 18.1281 88.7467 18.4241 88.5227 18.6641C88.2987 18.8881 88.0027 19.0001 87.6347 19.0001ZM87.6347 3.7361C87.2027 3.7361 86.8267 3.5841 86.5067 3.2801C86.2027 2.9601 86.0507 2.5841 86.0507 2.1521C86.0507 1.7201 86.2027 1.3521 86.5067 1.0481C86.8267 0.728104 87.2027 0.568104 87.6347 0.568104C88.0667 0.568104 88.4347 0.728104 88.7387 1.0481C89.0587 1.3521 89.2187 1.7201 89.2187 2.1521C89.2187 2.5841 89.0587 2.9601 88.7387 3.2801C88.4347 3.5841 88.0667 3.7361 87.6347 3.7361Z" fill="#333333"/>
<path d="M98.5249 19.0961C97.2289 19.0961 96.0849 18.8161 95.0929 18.2561C94.1009 17.6801 93.3169 16.8961 92.7409 15.9041C92.1809 14.8961 91.9009 13.7441 91.9009 12.4481C91.9009 11.1361 92.1809 9.9841 92.7409 8.9921C93.3169 7.9841 94.1009 7.2001 95.0929 6.6401C96.0849 6.0641 97.2289 5.7761 98.5249 5.7761C99.8049 5.7761 100.941 6.0641 101.933 6.6401C102.925 7.2001 103.701 7.9841 104.261 8.9921C104.837 9.9841 105.125 11.1361 105.125 12.4481C105.125 13.7441 104.845 14.8961 104.285 15.9041C103.725 16.8961 102.949 17.6801 101.957 18.2561C100.965 18.8161 99.8209 19.0961 98.5249 19.0961ZM98.5249 16.9361C99.3569 16.9361 100.093 16.7441 100.733 16.3601C101.373 15.9761 101.869 15.4481 102.221 14.7761C102.589 14.1041 102.773 13.3281 102.773 12.4481C102.773 11.5681 102.589 10.7921 102.221 10.1201C101.869 9.4321 101.373 8.8961 100.733 8.5121C100.093 8.1281 99.3569 7.9361 98.5249 7.9361C97.6929 7.9361 96.9569 8.1281 96.3169 8.5121C95.6769 8.8961 95.1729 9.4321 94.8049 10.1201C94.4369 10.7921 94.2529 11.5681 94.2529 12.4481C94.2529 13.3281 94.4369 14.1041 94.8049 14.7761C95.1729 15.4481 95.6769 15.9761 96.3169 16.3601C96.9569 16.7441 97.6929 16.9361 98.5249 16.9361Z" fill="#333333"/>
</svg>
